{
	"asset":{
		"generator":"Khronos glTF Blender I/O v4.4.56",
		"version":"2.0"
	},
	"extensionsUsed":[
		"KHR_materials_emissive_strength"
	],
	"scene":0,
	"scenes":[
		{
			"name":"Scene",
			"nodes":[
				0,
				1,
				2,
				3,
				4,
				5,
				6,
				7,
				8,
				9,
				10
			]
		}
	],
	"nodes":[
		{
			"extras":{
				"skein":[]
			},
			"mesh":0,
			"name":"Pillar",
			"scale":[
				2.3319430351257324,
				13.314837455749512,
				2.3319430351257324
			],
			"translation":[
				-14.006147384643555,
				66.54361724853516,
				-21.131338119506836
			]
		},
		{
			"mesh":1,
			"name":"PillarBase",
			"scale":[
				2.7192816734313965,
				0.5490421056747437,
				2.7192816734313965
			],
			"translation":[
				-13.944140434265137,
				66.54360961914062,
				-21.131338119506836
			]
		},
		{
			"mesh":2,
			"name":"PillarTop",
			"scale":[
				3.019864797592163,
				0.3326790928840637,
				3.019864797592163
			],
			"translation":[
				-13.90566349029541,
				93.17325592041016,
				-21.06251335144043
			]
		},
		{
			"extras":{
				"skein":[
					{
						"bevy_game_jam_6::game::prefabs::game_world_markers::TempleBase":{}
					},
					{
						"bevy_game_jam_6::game::prefabs::game_world_markers::AutoColliderMesh":{
							"method":"ConvexHull"
						}
					}
				]
			},
			"mesh":3,
			"name":"TempleBase",
			"scale":[
				17.189281463623047,
				7.024759769439697,
				24.9287166595459
			],
			"translation":[
				0,
				59.518856048583984,
				0
			]
		},
		{
			"extras":{
				"skein":[
					{
						"bevy_game_jam_6::game::prefabs::game_world_markers::AutoColliderMesh":{
							"method":"ConvexHull"
						}
					},
					{
						"bevy_game_jam_6::game::prefabs::game_world_markers::TempleRoof":{}
					}
				]
			},
			"mesh":4,
			"name":"TempleRoof",
			"scale":[
				19.443859100341797,
				10.37866497039795,
				26.84396743774414
			],
			"translation":[
				-0.1681700050830841,
				103.79199981689453,
				-0.1398259997367859
			]
		},
		{
			"extras":{
				"skein":[
					{
						"bevy_game_jam_6::game::prefabs::game_world_markers::TempleLight":{}
					}
				]
			},
			"mesh":5,
			"name":"TempleLight",
			"scale":[
				19.443859100341797,
				10.37866497039795,
				26.84396743774414
			],
			"translation":[
				-0.1681700050830841,
				103.36776733398438,
				-0.1398259997367859
			]
		},
		{
			"extras":{
				"skein":[
					{
						"bevy_game_jam_6::game::prefabs::game_world_markers::PlayerSpawnMarker":{}
					},
					{
						"bevy_game_jam_6::game::camera::CameraTarget":{}
					}
				]
			},
			"name":"PlayerSpawn",
			"translation":[
				-1.4897079467773438,
				76.04232025146484,
				0.0767807811498642
			]
		},
		{
			"extras":{
				"skein":[
					{
						"bevy_game_jam_6::game::prefabs::game_world_markers::EnemySpawnMarker":{}
					}
				]
			},
			"name":"EnemySpawn",
			"translation":[
				-1.4897079467773438,
				74.81527709960938,
				328.93060302734375
			]
		},
		{
			"extras":{
				"skein":[
					{
						"bevy_game_jam_6::game::prefabs::game_world_markers::OutOfBoundsMarker":{}
					},
					{
						"avian3d::collision::collider::Sensor":{}
					},
					{
						"bevy_render::view::visibility::Visibility":"Hidden"
					},
					{
						"bevy_game_jam_6::game::prefabs::game_world_markers::AutoColliderMesh":{
							"method":"ConvexDecompositionNoApprox"
						}
					}
				]
			},
			"mesh":6,
			"name":"OutOfBounds",
			"rotation":[
				-1,
				0,
				0,
				4.371138828673793e-08
			],
			"scale":[
				482.3856506347656,
				351.5271301269531,
				482.3856506347656
			],
			"translation":[
				0,
				-124.23764038085938,
				0
			]
		},
		{
			"extras":{
				"skein":[
					{
						"bevy_game_jam_6::game::prefabs::game_world_markers::AutoColliderMesh":{
							"method":"TriMesh"
						}
					},
					{
						"bevy_game_jam_6::game::prefabs::game_world_markers::TemplePillar":{}
					}
				]
			},
			"mesh":7,
			"name":"PillarApplied",
			"scale":[
				2.3319430351257324,
				13.314837455749512,
				2.3319430351257324
			],
			"translation":[
				-14.006147384643555,
				66.54361724853516,
				-21.131338119506836
			]
		},
		{
			"extras":{
				"skein":[
					{
						"bevy_game_jam_6::game::prefabs::game_world_markers::AutoColliderMesh":{
							"method":"ConvexHull"
						}
					}
				]
			},
			"mesh":8,
			"name":"Land",
			"scale":[
				0.7073188424110413,
				1,
				0.7073188424110413
			],
			"translation":[
				0,
				47.50809860229492,
				0
			]
		}
	],
	"materials":[
		{
			"doubleSided":true,
			"name":"Material.002",
			"pbrMetallicRoughness":{
				"baseColorFactor":[
					0.800000011920929,
					0.800000011920929,
					0.800000011920929,
					1
				],
				"metallicFactor":0,
				"roughnessFactor":0.11398963630199432
			}
		},
		{
			"doubleSided":true,
			"emissiveFactor":[
				1,
				1,
				1
			],
			"extensions":{
				"KHR_materials_emissive_strength":{
					"emissiveStrength":92.69999694824219
				}
			},
			"name":"Material.004",
			"pbrMetallicRoughness":{
				"baseColorFactor":[
					0.800000011920929,
					0.800000011920929,
					0.800000011920929,
					1
				],
				"metallicFactor":0,
				"roughnessFactor":0.5
			}
		},
		{
			"doubleSided":true,
			"name":"Material.001",
			"pbrMetallicRoughness":{
				"baseColorFactor":[
					0,
					0.8003778457641602,
					0.007264796644449234,
					1
				],
				"metallicFactor":0,
				"roughnessFactor":0.9170984029769897
			}
		}
	],
	"meshes":[
		{
			"name":"Cylinder",
			"primitives":[
				{
					"attributes":{
						"POSITION":0,
						"NORMAL":1,
						"TEXCOORD_0":2
					},
					"indices":3
				}
			]
		},
		{
			"name":"Cube.002",
			"primitives":[
				{
					"attributes":{
						"POSITION":4,
						"NORMAL":5,
						"TEXCOORD_0":6
					},
					"indices":7
				}
			]
		},
		{
			"name":"Cylinder.001",
			"primitives":[
				{
					"attributes":{
						"POSITION":8,
						"NORMAL":9,
						"TEXCOORD_0":10
					},
					"indices":3
				}
			]
		},
		{
			"name":"Cube.001",
			"primitives":[
				{
					"attributes":{
						"POSITION":11,
						"NORMAL":12,
						"TEXCOORD_0":13
					},
					"indices":7
				}
			]
		},
		{
			"name":"Cube.003",
			"primitives":[
				{
					"attributes":{
						"POSITION":14,
						"NORMAL":15,
						"TEXCOORD_0":16
					},
					"indices":17,
					"material":0
				}
			]
		},
		{
			"name":"Cube.004",
			"primitives":[
				{
					"attributes":{
						"POSITION":18,
						"NORMAL":19,
						"TEXCOORD_0":20
					},
					"indices":21,
					"material":1
				}
			]
		},
		{
			"name":"Cone",
			"primitives":[
				{
					"attributes":{
						"POSITION":22,
						"NORMAL":23,
						"TEXCOORD_0":24
					},
					"indices":25
				}
			]
		},
		{
			"name":"Cylinder.003",
			"primitives":[
				{
					"attributes":{
						"POSITION":26,
						"NORMAL":27,
						"TEXCOORD_0":28
					},
					"indices":29
				}
			]
		},
		{
			"name":"Cylinder.005",
			"primitives":[
				{
					"attributes":{
						"POSITION":30,
						"NORMAL":31,
						"TEXCOORD_0":32
					},
					"indices":33,
					"material":2
				}
			]
		}
	],
	"accessors":[
		{
			"bufferView":0,
			"componentType":5126,
			"count":192,
			"max":[
				1,
				1.9999973773956299,
				0.9999990463256836
			],
			"min":[
				-1,
				-2.86102294921875e-06,
				-1.0000009536743164
			],
			"type":"VEC3"
		},
		{
			"bufferView":1,
			"componentType":5126,
			"count":192,
			"type":"VEC3"
		},
		{
			"bufferView":2,
			"componentType":5126,
			"count":192,
			"type":"VEC2"
		},
		{
			"bufferView":3,
			"componentType":5123,
			"count":372,
			"type":"SCALAR"
		},
		{
			"bufferView":4,
			"componentType":5126,
			"count":24,
			"max":[
				1,
				1,
				1
			],
			"min":[
				-1,
				-1,
				-1
			],
			"type":"VEC3"
		},
		{
			"bufferView":5,
			"componentType":5126,
			"count":24,
			"type":"VEC3"
		},
		{
			"bufferView":6,
			"componentType":5126,
			"count":24,
			"type":"VEC2"
		},
		{
			"bufferView":7,
			"componentType":5123,
			"count":36,
			"type":"SCALAR"
		},
		{
			"bufferView":8,
			"componentType":5126,
			"count":192,
			"max":[
				1,
				1,
				1
			],
			"min":[
				-1,
				-1,
				-1
			],
			"type":"VEC3"
		},
		{
			"bufferView":9,
			"componentType":5126,
			"count":192,
			"type":"VEC3"
		},
		{
			"bufferView":10,
			"componentType":5126,
			"count":192,
			"type":"VEC2"
		},
		{
			"bufferView":11,
			"componentType":5126,
			"count":24,
			"max":[
				1.7567812204360962,
				1,
				1.7567812204360962
			],
			"min":[
				-1.7567812204360962,
				-1.0000003576278687,
				-1.7567812204360962
			],
			"type":"VEC3"
		},
		{
			"bufferView":12,
			"componentType":5126,
			"count":24,
			"type":"VEC3"
		},
		{
			"bufferView":13,
			"componentType":5126,
			"count":24,
			"type":"VEC2"
		},
		{
			"bufferView":14,
			"componentType":5126,
			"count":78,
			"max":[
				1,
				1,
				1
			],
			"min":[
				-1,
				-1,
				-1
			],
			"type":"VEC3"
		},
		{
			"bufferView":15,
			"componentType":5126,
			"count":78,
			"type":"VEC3"
		},
		{
			"bufferView":16,
			"componentType":5126,
			"count":78,
			"type":"VEC2"
		},
		{
			"bufferView":17,
			"componentType":5123,
			"count":144,
			"type":"SCALAR"
		},
		{
			"bufferView":18,
			"componentType":5126,
			"count":4,
			"max":[
				0.6173937320709229,
				-0.6435778141021729,
				0.6173937320709229
			],
			"min":[
				-0.6173937320709229,
				-0.6435778141021729,
				-0.6173937320709229
			],
			"type":"VEC3"
		},
		{
			"bufferView":19,
			"componentType":5126,
			"count":4,
			"type":"VEC3"
		},
		{
			"bufferView":20,
			"componentType":5126,
			"count":4,
			"type":"VEC2"
		},
		{
			"bufferView":21,
			"componentType":5123,
			"count":6,
			"type":"SCALAR"
		},
		{
			"bufferView":22,
			"componentType":5126,
			"count":384,
			"max":[
				1,
				1.1920928955078125e-07,
				1.0000001192092896
			],
			"min":[
				-1,
				-1.747889518737793,
				-1
			],
			"type":"VEC3"
		},
		{
			"bufferView":23,
			"componentType":5126,
			"count":384,
			"type":"VEC3"
		},
		{
			"bufferView":24,
			"componentType":5126,
			"count":384,
			"type":"VEC2"
		},
		{
			"bufferView":25,
			"componentType":5123,
			"count":756,
			"type":"SCALAR"
		},
		{
			"bufferView":26,
			"componentType":5126,
			"count":1632,
			"max":[
				13.252082824707031,
				2.0249826908111572,
				19.454504013061523
			],
			"min":[
				-1.251908540725708,
				-0.04123583808541298,
				-1.2654860019683838
			],
			"type":"VEC3"
		},
		{
			"bufferView":27,
			"componentType":5126,
			"count":1632,
			"type":"VEC3"
		},
		{
			"bufferView":28,
			"componentType":5126,
			"count":1632,
			"type":"VEC2"
		},
		{
			"bufferView":29,
			"componentType":5123,
			"count":3216,
			"type":"SCALAR"
		},
		{
			"bufferView":30,
			"componentType":5126,
			"count":768,
			"max":[
				500.0000305175781,
				10.000011444091797,
				500.00006103515625
			],
			"min":[
				-499.9999694824219,
				-9.999988555908203,
				-499.99993896484375
			],
			"type":"VEC3"
		},
		{
			"bufferView":31,
			"componentType":5126,
			"count":768,
			"type":"VEC3"
		},
		{
			"bufferView":32,
			"componentType":5126,
			"count":768,
			"type":"VEC2"
		},
		{
			"bufferView":33,
			"componentType":5123,
			"count":1524,
			"type":"SCALAR"
		}
	],
	"bufferViews":[
		{
			"buffer":0,
			"byteLength":2304,
			"byteOffset":0,
			"target":34962
		},
		{
			"buffer":0,
			"byteLength":2304,
			"byteOffset":2304,
			"target":34962
		},
		{
			"buffer":0,
			"byteLength":1536,
			"byteOffset":4608,
			"target":34962
		},
		{
			"buffer":0,
			"byteLength":744,
			"byteOffset":6144,
			"target":34963
		},
		{
			"buffer":0,
			"byteLength":288,
			"byteOffset":6888,
			"target":34962
		},
		{
			"buffer":0,
			"byteLength":288,
			"byteOffset":7176,
			"target":34962
		},
		{
			"buffer":0,
			"byteLength":192,
			"byteOffset":7464,
			"target":34962
		},
		{
			"buffer":0,
			"byteLength":72,
			"byteOffset":7656,
			"target":34963
		},
		{
			"buffer":0,
			"byteLength":2304,
			"byteOffset":7728,
			"target":34962
		},
		{
			"buffer":0,
			"byteLength":2304,
			"byteOffset":10032,
			"target":34962
		},
		{
			"buffer":0,
			"byteLength":1536,
			"byteOffset":12336,
			"target":34962
		},
		{
			"buffer":0,
			"byteLength":288,
			"byteOffset":13872,
			"target":34962
		},
		{
			"buffer":0,
			"byteLength":288,
			"byteOffset":14160,
			"target":34962
		},
		{
			"buffer":0,
			"byteLength":192,
			"byteOffset":14448,
			"target":34962
		},
		{
			"buffer":0,
			"byteLength":936,
			"byteOffset":14640,
			"target":34962
		},
		{
			"buffer":0,
			"byteLength":936,
			"byteOffset":15576,
			"target":34962
		},
		{
			"buffer":0,
			"byteLength":624,
			"byteOffset":16512,
			"target":34962
		},
		{
			"buffer":0,
			"byteLength":288,
			"byteOffset":17136,
			"target":34963
		},
		{
			"buffer":0,
			"byteLength":48,
			"byteOffset":17424,
			"target":34962
		},
		{
			"buffer":0,
			"byteLength":48,
			"byteOffset":17472,
			"target":34962
		},
		{
			"buffer":0,
			"byteLength":32,
			"byteOffset":17520,
			"target":34962
		},
		{
			"buffer":0,
			"byteLength":12,
			"byteOffset":17552,
			"target":34963
		},
		{
			"buffer":0,
			"byteLength":4608,
			"byteOffset":17564,
			"target":34962
		},
		{
			"buffer":0,
			"byteLength":4608,
			"byteOffset":22172,
			"target":34962
		},
		{
			"buffer":0,
			"byteLength":3072,
			"byteOffset":26780,
			"target":34962
		},
		{
			"buffer":0,
			"byteLength":1512,
			"byteOffset":29852,
			"target":34963
		},
		{
			"buffer":0,
			"byteLength":19584,
			"byteOffset":31364,
			"target":34962
		},
		{
			"buffer":0,
			"byteLength":19584,
			"byteOffset":50948,
			"target":34962
		},
		{
			"buffer":0,
			"byteLength":13056,
			"byteOffset":70532,
			"target":34962
		},
		{
			"buffer":0,
			"byteLength":6432,
			"byteOffset":83588,
			"target":34963
		},
		{
			"buffer":0,
			"byteLength":9216,
			"byteOffset":90020,
			"target":34962
		},
		{
			"buffer":0,
			"byteLength":9216,
			"byteOffset":99236,
			"target":34962
		},
		{
			"buffer":0,
			"byteLength":6144,
			"byteOffset":108452,
			"target":34962
		},
		{
			"buffer":0,
			"byteLength":3048,
			"byteOffset":114596,
			"target":34963
		}
	],
	"buffers":[
		{
			"byteLength":117644,
			"uri":"world.bin"
		}
	]
}
